<svg xmlns="http://www.w3.org/2000/svg" viewBox="0 0 1535 499"><defs><style>.cls-1{fill:#fafbfc;}.cls-2{fill:#fefefe;}.cls-3{fill:#78a0f0;}.cls-4,.cls-5,.cls-9{fill:#fff;}.cls-5{font-size:69.24px;font-family:LEMONMILK-Regular, LEMON MILK;letter-spacing:0.06em;}.cls-6{letter-spacing:-0.01em;}.cls-7{letter-spacing:0.04em;}.cls-8{letter-spacing:0.06em;}.cls-9{font-size:105.45px;font-family:LEMONMILK-Bold, LEMON MILK;font-weight:700;letter-spacing:0.06em;}.cls-10{letter-spacing:-0.01em;}.cls-11{letter-spacing:-0.04em;}</style></defs><g id="Capa_2" data-name="Capa 2"><g id="Capa_1-2" data-name="Capa 1"><path class="cls-1" d="M258.65,331c0,24.4.59,48.83-.12,73.21-1.45,49.58-42.34,77.47-87.68,60.55-9-3.35-15.94-8.92-22.41-15.71-9.1-9.53-10.15-17.35.93-27,10.6-9.21,16.41-5.82,23.74,3.54,7.44,9.51,18.44,11.09,29.74,8.24S220.33,423,222.4,412.09a115.26,115.26,0,0,0,1.63-21c.14-45.56.47-91.13-.18-136.68-.19-12.93,5.28-15.34,16.63-15.26s18.86,1,18.41,15.37C258.07,280,258.66,305.49,258.65,331Z"/><path class="cls-1" d="M247.07,334.94c0,25.47.88,51-.27,76.39-.93,20.41-10.75,36.53-31.2,43.32-20.27,6.74-39.87,5.4-56.18-10.21-3.23-3.09-10-6.6-3.35-13s8,1.79,10.87,4.2c13.44,11.34,28.66,13.18,44.24,7,16.49-6.58,23.14-20.69,23.21-37.74.19-45,.08-90,.09-135,0-3.8,0-7.59,0-11.38,0-4.56.16-8.7,6.59-8.79,6.68-.1,6.45,4.35,6.45,8.73q.06,38.21,0,76.42Z"/><path class="cls-2" d="M535.56,406.15c-3.06-5.78-3.8-9.38,2.28-14.85,30.32-27.27,38.57-62.41,24.41-98.6-12.61-32.25-44-52.64-82.53-53.2-22.9-.33-45.83.47-68.71-.27-13.05-.42-17.16,4.7-16.92,17.24.6,32,.2,64,.2,96,0,32.56.43,65.13-.21,97.68-.26,13.23,5.6,16.81,17.7,16.94,12.67.14,18.14-4.61,17.15-17.35-.63-8.09.65-16.36-.3-24.39-1.41-12,3.79-14.6,14.8-14.1a319.74,319.74,0,0,0,45.7-.95c8-.79,11.76.89,14.9,8.1,5.84,13.39,12.31,26.54,19.17,39.45,4.6,8.66,23.6,12.9,31.95,7.3,10.5-7.05,2.27-14.66-.65-21.28C548.82,431.05,542.15,418.6,535.56,406.15Zm-46.85-16.6c-20.48,2.08-41.27.93-61.91,1.57-8.8.28-9.26-4.84-9.18-11.47.23-17.87.08-35.74.08-53.61,0-18.41.31-36.83-.14-55.23-.19-7.79,2.58-10.67,10.3-10.42C448,261,468.2,260,488.15,262c33.35,3.3,56.88,31.07,56.59,64.42C544.45,359.33,521.58,386.21,488.71,389.55Z"/><path class="cls-3" d="M0,71.5C49,93.43,88.49,98.2,115.92,98.36c18,.11,49.82-1.65,91.08,6.14,14.28,2.7,32,7,49,20.5a96.39,96.39,0,0,1,23,26.67c-3.32-12.92-11.28-35.14-31.33-53.34-27.53-25-61.83-27.85-75.34-28C162,70.22,144.15,72.48,108.5,77c-2.79.35-12.1,1.54-24.45,2.15-3.92.19-8.19.32-12.8.35-6.26,0-15.46-.1-26.5-1A306.74,306.74,0,0,1,0,71.5Z"/><path class="cls-3" d="M23.67,112.69c43.78,18.69,79.67,23.79,104.42,25,14.91.72,40.11-.74,75.28,5,19.46,3.17,35.72,7.38,50.91,19.78A88.1,88.1,0,0,1,275,187.21c-3-12-10.16-32.66-28.23-49.57-24.79-23.22-55.69-25.9-67.86-26-9.33-.1-25.39,2-57.5,6.2-2.52.33-10.9,1.42-22,2-3.53.18-7.37.3-11.53.33-5.63,0-13.92-.1-23.87-.93A268.36,268.36,0,0,1,23.67,112.69Z"/><path class="cls-3" d="M73.67,154.4c34.89,16.38,63.5,20.85,83.23,21.89,11.88.63,32-.65,60,4.37,15.51,2.77,28.46,6.46,40.58,17.34A75.92,75.92,0,0,1,274,219.73c-2.39-10.53-8.1-28.63-22.5-43.46-19.76-20.35-44.39-22.7-54.09-22.82-7.44-.09-20.24,1.75-45.84,5.44-2,.28-8.68,1.25-17.55,1.75-2.82.15-5.88.26-9.19.28-4.5,0-11.1-.08-19-.81A196.92,196.92,0,0,1,73.67,154.4Z"/><path class="cls-3" d="M659,71.5c-49,21.93-88.49,26.7-115.92,26.86-18,.11-49.82-1.65-91.08,6.14-14.28,2.7-32,7-49,20.5a96.39,96.39,0,0,0-23,26.67c3.32-12.92,11.28-35.14,31.33-53.34,27.53-25,61.83-27.85,75.34-28C497,70.22,514.85,72.48,550.5,77c2.79.35,12.1,1.54,24.45,2.15,3.92.19,8.19.32,12.8.35,6.26,0,15.46-.1,26.5-1A306.74,306.74,0,0,0,659,71.5Z"/><path class="cls-3" d="M635.33,112.69c-43.78,18.69-79.67,23.79-104.42,25-14.91.72-40.11-.74-75.28,5-19.46,3.17-35.72,7.38-50.91,19.78A88.1,88.1,0,0,0,384,187.21c3-12,10.16-32.66,28.23-49.57,24.79-23.22,55.69-25.9,67.86-26,9.33-.1,25.39,2,57.5,6.2,2.52.33,10.9,1.42,22,2,3.53.18,7.37.3,11.53.33,5.63,0,13.92-.1,23.87-.93A268.36,268.36,0,0,0,635.33,112.69Z"/><path class="cls-3" d="M585.33,154.4c-34.89,16.38-63.5,20.85-83.23,21.89-11.88.63-32-.65-60,4.37-15.51,2.77-28.46,6.46-40.58,17.34A75.92,75.92,0,0,0,385,219.73c2.39-10.53,8.1-28.63,22.5-43.46,19.76-20.35,44.39-22.7,54.09-22.82,7.44-.09,20.24,1.75,45.84,5.44,2,.28,8.68,1.25,17.55,1.75,2.82.15,5.88.26,9.19.28,4.5,0,11.1-.08,19-.81A196.92,196.92,0,0,0,585.33,154.4Z"/><path class="cls-4" d="M306,70l48-1q-10,215-20,430Q320,284.5,306,70Z"/><circle class="cls-4" cx="329" cy="39" r="39"/><text class="cls-5" transform="translate(670.16 152.74)">CENTRO DE<tspan x="0" y="83.09">ESPECIALI</tspan><tspan class="cls-6" x="389.13" y="83.09">D</tspan><tspan x="439.73" y="83.09">ADES</tspan><tspan x="0" y="166.17">MEDIC</tspan><tspan class="cls-7" x="247.72" y="166.17">A</tspan><tspan class="cls-8" x="303.54" y="166.17">S</tspan></text><text class="cls-9" transform="translate(639.5 437.18)">jeh<tspan class="cls-10" x="233.03" y="0">o</tspan><tspan x="330.18" y="0">vรก ra</tspan><tspan class="cls-11" x="740.17" y="0">f</tspan><tspan x="799.38" y="0">a</tspan></text></g></g></svg>